<mxfile host="app.diagrams.net" agent="Mozilla/5.0 (Windows NT 10.0; Win64; x64) AppleWebKit/537.36 (KHTML, like Gecko) Chrome/131.0.0.0 Safari/537.36 OPR/116.0.0.0" version="26.0.16">
  <diagram id="R2lEEEUBdFMjLlhIrx00" name="Page-1">
    <mxGraphModel dx="806" dy="430" grid="1" gridSize="10" guides="1" tooltips="1" connect="1" arrows="1" fold="1" page="1" pageScale="1" pageWidth="850" pageHeight="1100" math="0" shadow="0" extFonts="Permanent Marker^https://fonts.googleapis.com/css?family=Permanent+Marker">
      <root>
        <mxCell id="0" />
        <mxCell id="1" parent="0" />
        <mxCell id="C-vyLk0tnHw3VtMMgP7b-1" value="" style="edgeStyle=entityRelationEdgeStyle;endArrow=ERmany;startArrow=ERone;endFill=0;startFill=0;entryX=0;entryY=0.5;entryDx=0;entryDy=0;" parent="1" source="C-vyLk0tnHw3VtMMgP7b-24" target="C-vyLk0tnHw3VtMMgP7b-3" edge="1">
          <mxGeometry width="100" height="100" relative="1" as="geometry">
            <mxPoint x="260" y="720" as="sourcePoint" />
            <mxPoint x="360" y="620" as="targetPoint" />
          </mxGeometry>
        </mxCell>
        <mxCell id="Uh1MCq1mp-rETHQdj0HH-17" value="employs" style="edgeLabel;html=1;align=center;verticalAlign=middle;resizable=0;points=[];" vertex="1" connectable="0" parent="C-vyLk0tnHw3VtMMgP7b-1">
          <mxGeometry x="-0.067" relative="1" as="geometry">
            <mxPoint x="-1" as="offset" />
          </mxGeometry>
        </mxCell>
        <mxCell id="C-vyLk0tnHw3VtMMgP7b-12" value="" style="edgeStyle=entityRelationEdgeStyle;endArrow=ERoneToMany;startArrow=ERone;endFill=0;startFill=0;entryX=0;entryY=0.5;entryDx=0;entryDy=0;exitX=1;exitY=0.5;exitDx=0;exitDy=0;" parent="1" source="Uh1MCq1mp-rETHQdj0HH-9" target="C-vyLk0tnHw3VtMMgP7b-17" edge="1">
          <mxGeometry width="100" height="100" relative="1" as="geometry">
            <mxPoint x="290" y="340" as="sourcePoint" />
            <mxPoint x="290" y="530" as="targetPoint" />
          </mxGeometry>
        </mxCell>
        <mxCell id="Uh1MCq1mp-rETHQdj0HH-18" value="has" style="edgeLabel;html=1;align=center;verticalAlign=middle;resizable=0;points=[];" vertex="1" connectable="0" parent="C-vyLk0tnHw3VtMMgP7b-12">
          <mxGeometry x="-0.0871" relative="1" as="geometry">
            <mxPoint as="offset" />
          </mxGeometry>
        </mxCell>
        <mxCell id="Uh1MCq1mp-rETHQdj0HH-22" style="edgeStyle=orthogonalEdgeStyle;rounded=0;orthogonalLoop=1;jettySize=auto;html=1;entryX=1;entryY=0.25;entryDx=0;entryDy=0;endArrow=ERmany;endFill=0;startArrow=ERone;startFill=0;" edge="1" parent="1" source="C-vyLk0tnHw3VtMMgP7b-2" target="Uh1MCq1mp-rETHQdj0HH-5">
          <mxGeometry relative="1" as="geometry" />
        </mxCell>
        <mxCell id="Uh1MCq1mp-rETHQdj0HH-23" value="includes" style="edgeLabel;html=1;align=center;verticalAlign=middle;resizable=0;points=[];" vertex="1" connectable="0" parent="Uh1MCq1mp-rETHQdj0HH-22">
          <mxGeometry x="0.2484" y="1" relative="1" as="geometry">
            <mxPoint y="-26" as="offset" />
          </mxGeometry>
        </mxCell>
        <mxCell id="Uh1MCq1mp-rETHQdj0HH-170" style="edgeStyle=orthogonalEdgeStyle;rounded=0;orthogonalLoop=1;jettySize=auto;html=1;entryX=0;entryY=0.5;entryDx=0;entryDy=0;endArrow=ERone;endFill=0;startArrow=ERmany;startFill=0;" edge="1" parent="1" source="C-vyLk0tnHw3VtMMgP7b-2" target="Uh1MCq1mp-rETHQdj0HH-165">
          <mxGeometry relative="1" as="geometry">
            <Array as="points">
              <mxPoint x="580" y="110" />
              <mxPoint x="580" y="830" />
            </Array>
          </mxGeometry>
        </mxCell>
        <mxCell id="C-vyLk0tnHw3VtMMgP7b-2" value="Staff" style="shape=table;startSize=30;container=1;collapsible=1;childLayout=tableLayout;fixedRows=1;rowLines=0;fontStyle=1;align=center;resizeLast=1;" parent="1" vertex="1">
          <mxGeometry x="320" y="40" width="200" height="140" as="geometry" />
        </mxCell>
        <mxCell id="C-vyLk0tnHw3VtMMgP7b-3" value="" style="shape=partialRectangle;collapsible=0;dropTarget=0;pointerEvents=0;fillColor=none;points=[[0,0.5],[1,0.5]];portConstraint=eastwest;top=0;left=0;right=0;bottom=1;" parent="C-vyLk0tnHw3VtMMgP7b-2" vertex="1">
          <mxGeometry y="30" width="200" height="30" as="geometry" />
        </mxCell>
        <mxCell id="C-vyLk0tnHw3VtMMgP7b-4" value="PK" style="shape=partialRectangle;overflow=hidden;connectable=0;fillColor=none;top=0;left=0;bottom=0;right=0;fontStyle=1;" parent="C-vyLk0tnHw3VtMMgP7b-3" vertex="1">
          <mxGeometry width="30" height="30" as="geometry">
            <mxRectangle width="30" height="30" as="alternateBounds" />
          </mxGeometry>
        </mxCell>
        <mxCell id="C-vyLk0tnHw3VtMMgP7b-5" value="STAFF_ID" style="shape=partialRectangle;overflow=hidden;connectable=0;fillColor=none;top=0;left=0;bottom=0;right=0;align=left;spacingLeft=6;fontStyle=5;" parent="C-vyLk0tnHw3VtMMgP7b-3" vertex="1">
          <mxGeometry x="30" width="170" height="30" as="geometry">
            <mxRectangle width="170" height="30" as="alternateBounds" />
          </mxGeometry>
        </mxCell>
        <mxCell id="C-vyLk0tnHw3VtMMgP7b-6" value="" style="shape=partialRectangle;collapsible=0;dropTarget=0;pointerEvents=0;fillColor=none;points=[[0,0.5],[1,0.5]];portConstraint=eastwest;top=0;left=0;right=0;bottom=0;" parent="C-vyLk0tnHw3VtMMgP7b-2" vertex="1">
          <mxGeometry y="60" width="200" height="70" as="geometry" />
        </mxCell>
        <mxCell id="C-vyLk0tnHw3VtMMgP7b-7" value="" style="shape=partialRectangle;overflow=hidden;connectable=0;fillColor=none;top=0;left=0;bottom=0;right=0;" parent="C-vyLk0tnHw3VtMMgP7b-6" vertex="1">
          <mxGeometry width="30" height="70" as="geometry">
            <mxRectangle width="30" height="70" as="alternateBounds" />
          </mxGeometry>
        </mxCell>
        <mxCell id="C-vyLk0tnHw3VtMMgP7b-8" value="name&#xa;&#xa;type&#xa;&#xa;salary" style="shape=partialRectangle;overflow=hidden;connectable=0;fillColor=none;top=0;left=0;bottom=0;right=0;align=left;spacingLeft=6;" parent="C-vyLk0tnHw3VtMMgP7b-6" vertex="1">
          <mxGeometry x="30" width="170" height="70" as="geometry">
            <mxRectangle width="170" height="70" as="alternateBounds" />
          </mxGeometry>
        </mxCell>
        <mxCell id="C-vyLk0tnHw3VtMMgP7b-13" value="License" style="shape=table;startSize=30;container=1;collapsible=1;childLayout=tableLayout;fixedRows=1;rowLines=0;fontStyle=1;align=center;resizeLast=1;" parent="1" vertex="1">
          <mxGeometry x="320" y="200" width="200" height="130" as="geometry" />
        </mxCell>
        <mxCell id="C-vyLk0tnHw3VtMMgP7b-14" value="" style="shape=partialRectangle;collapsible=0;dropTarget=0;pointerEvents=0;fillColor=none;points=[[0,0.5],[1,0.5]];portConstraint=eastwest;top=0;left=0;right=0;bottom=1;" parent="C-vyLk0tnHw3VtMMgP7b-13" vertex="1">
          <mxGeometry y="30" width="200" height="30" as="geometry" />
        </mxCell>
        <mxCell id="C-vyLk0tnHw3VtMMgP7b-15" value="PK" style="shape=partialRectangle;overflow=hidden;connectable=0;fillColor=none;top=0;left=0;bottom=0;right=0;fontStyle=1;" parent="C-vyLk0tnHw3VtMMgP7b-14" vertex="1">
          <mxGeometry width="30" height="30" as="geometry">
            <mxRectangle width="30" height="30" as="alternateBounds" />
          </mxGeometry>
        </mxCell>
        <mxCell id="C-vyLk0tnHw3VtMMgP7b-16" value="LICENSE" style="shape=partialRectangle;overflow=hidden;connectable=0;fillColor=none;top=0;left=0;bottom=0;right=0;align=left;spacingLeft=6;fontStyle=5;" parent="C-vyLk0tnHw3VtMMgP7b-14" vertex="1">
          <mxGeometry x="30" width="170" height="30" as="geometry">
            <mxRectangle width="170" height="30" as="alternateBounds" />
          </mxGeometry>
        </mxCell>
        <mxCell id="C-vyLk0tnHw3VtMMgP7b-17" value="" style="shape=partialRectangle;collapsible=0;dropTarget=0;pointerEvents=0;fillColor=none;points=[[0,0.5],[1,0.5]];portConstraint=eastwest;top=0;left=0;right=0;bottom=0;" parent="C-vyLk0tnHw3VtMMgP7b-13" vertex="1">
          <mxGeometry y="60" width="200" height="30" as="geometry" />
        </mxCell>
        <mxCell id="C-vyLk0tnHw3VtMMgP7b-18" value="" style="shape=partialRectangle;overflow=hidden;connectable=0;fillColor=none;top=0;left=0;bottom=0;right=0;" parent="C-vyLk0tnHw3VtMMgP7b-17" vertex="1">
          <mxGeometry width="30" height="30" as="geometry">
            <mxRectangle width="30" height="30" as="alternateBounds" />
          </mxGeometry>
        </mxCell>
        <mxCell id="C-vyLk0tnHw3VtMMgP7b-19" value="type" style="shape=partialRectangle;overflow=hidden;connectable=0;fillColor=none;top=0;left=0;bottom=0;right=0;align=left;spacingLeft=6;" parent="C-vyLk0tnHw3VtMMgP7b-17" vertex="1">
          <mxGeometry x="30" width="170" height="30" as="geometry">
            <mxRectangle width="170" height="30" as="alternateBounds" />
          </mxGeometry>
        </mxCell>
        <mxCell id="C-vyLk0tnHw3VtMMgP7b-20" value="" style="shape=partialRectangle;collapsible=0;dropTarget=0;pointerEvents=0;fillColor=none;points=[[0,0.5],[1,0.5]];portConstraint=eastwest;top=0;left=0;right=0;bottom=0;" parent="C-vyLk0tnHw3VtMMgP7b-13" vertex="1">
          <mxGeometry y="90" width="200" height="30" as="geometry" />
        </mxCell>
        <mxCell id="C-vyLk0tnHw3VtMMgP7b-21" value="" style="shape=partialRectangle;overflow=hidden;connectable=0;fillColor=none;top=0;left=0;bottom=0;right=0;" parent="C-vyLk0tnHw3VtMMgP7b-20" vertex="1">
          <mxGeometry width="30" height="30" as="geometry">
            <mxRectangle width="30" height="30" as="alternateBounds" />
          </mxGeometry>
        </mxCell>
        <mxCell id="C-vyLk0tnHw3VtMMgP7b-22" value="expiration" style="shape=partialRectangle;overflow=hidden;connectable=0;fillColor=none;top=0;left=0;bottom=0;right=0;align=left;spacingLeft=6;" parent="C-vyLk0tnHw3VtMMgP7b-20" vertex="1">
          <mxGeometry x="30" width="170" height="30" as="geometry">
            <mxRectangle width="170" height="30" as="alternateBounds" />
          </mxGeometry>
        </mxCell>
        <mxCell id="Uh1MCq1mp-rETHQdj0HH-35" style="edgeStyle=orthogonalEdgeStyle;rounded=0;orthogonalLoop=1;jettySize=auto;html=1;exitX=0.5;exitY=0;exitDx=0;exitDy=0;entryX=0.5;entryY=0;entryDx=0;entryDy=0;endArrow=ERmany;endFill=0;startArrow=ERone;startFill=0;" edge="1" parent="1" source="C-vyLk0tnHw3VtMMgP7b-23" target="Uh1MCq1mp-rETHQdj0HH-25">
          <mxGeometry relative="1" as="geometry" />
        </mxCell>
        <mxCell id="Uh1MCq1mp-rETHQdj0HH-36" value="uses" style="edgeLabel;html=1;align=center;verticalAlign=middle;resizable=0;points=[];" vertex="1" connectable="0" parent="Uh1MCq1mp-rETHQdj0HH-35">
          <mxGeometry x="-0.076" y="2" relative="1" as="geometry">
            <mxPoint x="23" as="offset" />
          </mxGeometry>
        </mxCell>
        <mxCell id="C-vyLk0tnHw3VtMMgP7b-23" value="Dental Business" style="shape=table;startSize=30;container=1;collapsible=1;childLayout=tableLayout;fixedRows=1;rowLines=0;fontStyle=1;align=center;resizeLast=1;" parent="1" vertex="1">
          <mxGeometry x="40" y="40" width="200" height="130" as="geometry" />
        </mxCell>
        <mxCell id="C-vyLk0tnHw3VtMMgP7b-24" value="" style="shape=partialRectangle;collapsible=0;dropTarget=0;pointerEvents=0;fillColor=none;points=[[0,0.5],[1,0.5]];portConstraint=eastwest;top=0;left=0;right=0;bottom=1;" parent="C-vyLk0tnHw3VtMMgP7b-23" vertex="1">
          <mxGeometry y="30" width="200" height="30" as="geometry" />
        </mxCell>
        <mxCell id="C-vyLk0tnHw3VtMMgP7b-25" value="PK" style="shape=partialRectangle;overflow=hidden;connectable=0;fillColor=none;top=0;left=0;bottom=0;right=0;fontStyle=1;" parent="C-vyLk0tnHw3VtMMgP7b-24" vertex="1">
          <mxGeometry width="30" height="30" as="geometry">
            <mxRectangle width="30" height="30" as="alternateBounds" />
          </mxGeometry>
        </mxCell>
        <mxCell id="C-vyLk0tnHw3VtMMgP7b-26" value="BUSINESS_ID" style="shape=partialRectangle;overflow=hidden;connectable=0;fillColor=none;top=0;left=0;bottom=0;right=0;align=left;spacingLeft=6;fontStyle=5;" parent="C-vyLk0tnHw3VtMMgP7b-24" vertex="1">
          <mxGeometry x="30" width="170" height="30" as="geometry">
            <mxRectangle width="170" height="30" as="alternateBounds" />
          </mxGeometry>
        </mxCell>
        <mxCell id="C-vyLk0tnHw3VtMMgP7b-27" value="" style="shape=partialRectangle;collapsible=0;dropTarget=0;pointerEvents=0;fillColor=none;points=[[0,0.5],[1,0.5]];portConstraint=eastwest;top=0;left=0;right=0;bottom=0;" parent="C-vyLk0tnHw3VtMMgP7b-23" vertex="1">
          <mxGeometry y="60" width="200" height="30" as="geometry" />
        </mxCell>
        <mxCell id="C-vyLk0tnHw3VtMMgP7b-28" value="" style="shape=partialRectangle;overflow=hidden;connectable=0;fillColor=none;top=0;left=0;bottom=0;right=0;" parent="C-vyLk0tnHw3VtMMgP7b-27" vertex="1">
          <mxGeometry width="30" height="30" as="geometry">
            <mxRectangle width="30" height="30" as="alternateBounds" />
          </mxGeometry>
        </mxCell>
        <mxCell id="C-vyLk0tnHw3VtMMgP7b-29" value="name" style="shape=partialRectangle;overflow=hidden;connectable=0;fillColor=none;top=0;left=0;bottom=0;right=0;align=left;spacingLeft=6;" parent="C-vyLk0tnHw3VtMMgP7b-27" vertex="1">
          <mxGeometry x="30" width="170" height="30" as="geometry">
            <mxRectangle width="170" height="30" as="alternateBounds" />
          </mxGeometry>
        </mxCell>
        <mxCell id="Uh1MCq1mp-rETHQdj0HH-2" value="" style="shape=partialRectangle;collapsible=0;dropTarget=0;pointerEvents=0;fillColor=none;points=[[0,0.5],[1,0.5]];portConstraint=eastwest;top=0;left=0;right=0;bottom=0;" vertex="1" parent="C-vyLk0tnHw3VtMMgP7b-23">
          <mxGeometry y="90" width="200" height="30" as="geometry" />
        </mxCell>
        <mxCell id="Uh1MCq1mp-rETHQdj0HH-3" value="" style="shape=partialRectangle;overflow=hidden;connectable=0;fillColor=none;top=0;left=0;bottom=0;right=0;" vertex="1" parent="Uh1MCq1mp-rETHQdj0HH-2">
          <mxGeometry width="30" height="30" as="geometry">
            <mxRectangle width="30" height="30" as="alternateBounds" />
          </mxGeometry>
        </mxCell>
        <mxCell id="Uh1MCq1mp-rETHQdj0HH-4" value="type" style="shape=partialRectangle;overflow=hidden;connectable=0;fillColor=none;top=0;left=0;bottom=0;right=0;align=left;spacingLeft=6;" vertex="1" parent="Uh1MCq1mp-rETHQdj0HH-2">
          <mxGeometry x="30" width="170" height="30" as="geometry">
            <mxRectangle width="170" height="30" as="alternateBounds" />
          </mxGeometry>
        </mxCell>
        <mxCell id="Uh1MCq1mp-rETHQdj0HH-5" value="Doctor" style="shape=table;startSize=30;container=1;collapsible=1;childLayout=tableLayout;fixedRows=1;rowLines=0;fontStyle=1;align=center;resizeLast=1;" vertex="1" parent="1">
          <mxGeometry x="40" y="200" width="200" height="130" as="geometry" />
        </mxCell>
        <mxCell id="Uh1MCq1mp-rETHQdj0HH-6" value="" style="shape=partialRectangle;collapsible=0;dropTarget=0;pointerEvents=0;fillColor=none;points=[[0,0.5],[1,0.5]];portConstraint=eastwest;top=0;left=0;right=0;bottom=1;" vertex="1" parent="Uh1MCq1mp-rETHQdj0HH-5">
          <mxGeometry y="30" width="200" height="30" as="geometry" />
        </mxCell>
        <mxCell id="Uh1MCq1mp-rETHQdj0HH-7" value="PK" style="shape=partialRectangle;overflow=hidden;connectable=0;fillColor=none;top=0;left=0;bottom=0;right=0;fontStyle=1;" vertex="1" parent="Uh1MCq1mp-rETHQdj0HH-6">
          <mxGeometry width="30" height="30" as="geometry">
            <mxRectangle width="30" height="30" as="alternateBounds" />
          </mxGeometry>
        </mxCell>
        <mxCell id="Uh1MCq1mp-rETHQdj0HH-8" value="DENTIST_ID" style="shape=partialRectangle;overflow=hidden;connectable=0;fillColor=none;top=0;left=0;bottom=0;right=0;align=left;spacingLeft=6;fontStyle=5;" vertex="1" parent="Uh1MCq1mp-rETHQdj0HH-6">
          <mxGeometry x="30" width="170" height="30" as="geometry">
            <mxRectangle width="170" height="30" as="alternateBounds" />
          </mxGeometry>
        </mxCell>
        <mxCell id="Uh1MCq1mp-rETHQdj0HH-9" value="" style="shape=partialRectangle;collapsible=0;dropTarget=0;pointerEvents=0;fillColor=none;points=[[0,0.5],[1,0.5]];portConstraint=eastwest;top=0;left=0;right=0;bottom=0;" vertex="1" parent="Uh1MCq1mp-rETHQdj0HH-5">
          <mxGeometry y="60" width="200" height="30" as="geometry" />
        </mxCell>
        <mxCell id="Uh1MCq1mp-rETHQdj0HH-10" value="" style="shape=partialRectangle;overflow=hidden;connectable=0;fillColor=none;top=0;left=0;bottom=0;right=0;" vertex="1" parent="Uh1MCq1mp-rETHQdj0HH-9">
          <mxGeometry width="30" height="30" as="geometry">
            <mxRectangle width="30" height="30" as="alternateBounds" />
          </mxGeometry>
        </mxCell>
        <mxCell id="Uh1MCq1mp-rETHQdj0HH-11" value="name" style="shape=partialRectangle;overflow=hidden;connectable=0;fillColor=none;top=0;left=0;bottom=0;right=0;align=left;spacingLeft=6;" vertex="1" parent="Uh1MCq1mp-rETHQdj0HH-9">
          <mxGeometry x="30" width="170" height="30" as="geometry">
            <mxRectangle width="170" height="30" as="alternateBounds" />
          </mxGeometry>
        </mxCell>
        <mxCell id="Uh1MCq1mp-rETHQdj0HH-12" value="" style="shape=partialRectangle;collapsible=0;dropTarget=0;pointerEvents=0;fillColor=none;points=[[0,0.5],[1,0.5]];portConstraint=eastwest;top=0;left=0;right=0;bottom=0;" vertex="1" parent="Uh1MCq1mp-rETHQdj0HH-5">
          <mxGeometry y="90" width="200" height="30" as="geometry" />
        </mxCell>
        <mxCell id="Uh1MCq1mp-rETHQdj0HH-13" value="" style="shape=partialRectangle;overflow=hidden;connectable=0;fillColor=none;top=0;left=0;bottom=0;right=0;" vertex="1" parent="Uh1MCq1mp-rETHQdj0HH-12">
          <mxGeometry width="30" height="30" as="geometry">
            <mxRectangle width="30" height="30" as="alternateBounds" />
          </mxGeometry>
        </mxCell>
        <mxCell id="Uh1MCq1mp-rETHQdj0HH-14" value="specialization" style="shape=partialRectangle;overflow=hidden;connectable=0;fillColor=none;top=0;left=0;bottom=0;right=0;align=left;spacingLeft=6;" vertex="1" parent="Uh1MCq1mp-rETHQdj0HH-12">
          <mxGeometry x="30" width="170" height="30" as="geometry">
            <mxRectangle width="170" height="30" as="alternateBounds" />
          </mxGeometry>
        </mxCell>
        <mxCell id="Uh1MCq1mp-rETHQdj0HH-21" value="" style="shape=partialRectangle;overflow=hidden;connectable=0;fillColor=none;top=0;left=0;bottom=0;right=0;" vertex="1" parent="1">
          <mxGeometry x="370" y="240" width="30" height="30" as="geometry">
            <mxRectangle width="30" height="30" as="alternateBounds" />
          </mxGeometry>
        </mxCell>
        <mxCell id="Uh1MCq1mp-rETHQdj0HH-25" value="Equipment/Supplies/Software" style="shape=table;startSize=30;container=1;collapsible=1;childLayout=tableLayout;fixedRows=1;rowLines=0;fontStyle=1;align=center;resizeLast=1;" vertex="1" parent="1">
          <mxGeometry x="600" y="40" width="200" height="130" as="geometry" />
        </mxCell>
        <mxCell id="Uh1MCq1mp-rETHQdj0HH-26" value="" style="shape=partialRectangle;collapsible=0;dropTarget=0;pointerEvents=0;fillColor=none;points=[[0,0.5],[1,0.5]];portConstraint=eastwest;top=0;left=0;right=0;bottom=1;" vertex="1" parent="Uh1MCq1mp-rETHQdj0HH-25">
          <mxGeometry y="30" width="200" height="30" as="geometry" />
        </mxCell>
        <mxCell id="Uh1MCq1mp-rETHQdj0HH-27" value="PK" style="shape=partialRectangle;overflow=hidden;connectable=0;fillColor=none;top=0;left=0;bottom=0;right=0;fontStyle=1;" vertex="1" parent="Uh1MCq1mp-rETHQdj0HH-26">
          <mxGeometry width="30" height="30" as="geometry">
            <mxRectangle width="30" height="30" as="alternateBounds" />
          </mxGeometry>
        </mxCell>
        <mxCell id="Uh1MCq1mp-rETHQdj0HH-28" value="EQUIPMENT_TYPE" style="shape=partialRectangle;overflow=hidden;connectable=0;fillColor=none;top=0;left=0;bottom=0;right=0;align=left;spacingLeft=6;fontStyle=5;" vertex="1" parent="Uh1MCq1mp-rETHQdj0HH-26">
          <mxGeometry x="30" width="170" height="30" as="geometry">
            <mxRectangle width="170" height="30" as="alternateBounds" />
          </mxGeometry>
        </mxCell>
        <mxCell id="Uh1MCq1mp-rETHQdj0HH-29" value="" style="shape=partialRectangle;collapsible=0;dropTarget=0;pointerEvents=0;fillColor=none;points=[[0,0.5],[1,0.5]];portConstraint=eastwest;top=0;left=0;right=0;bottom=0;" vertex="1" parent="Uh1MCq1mp-rETHQdj0HH-25">
          <mxGeometry y="60" width="200" height="30" as="geometry" />
        </mxCell>
        <mxCell id="Uh1MCq1mp-rETHQdj0HH-30" value="" style="shape=partialRectangle;overflow=hidden;connectable=0;fillColor=none;top=0;left=0;bottom=0;right=0;" vertex="1" parent="Uh1MCq1mp-rETHQdj0HH-29">
          <mxGeometry width="30" height="30" as="geometry">
            <mxRectangle width="30" height="30" as="alternateBounds" />
          </mxGeometry>
        </mxCell>
        <mxCell id="Uh1MCq1mp-rETHQdj0HH-31" value="name" style="shape=partialRectangle;overflow=hidden;connectable=0;fillColor=none;top=0;left=0;bottom=0;right=0;align=left;spacingLeft=6;" vertex="1" parent="Uh1MCq1mp-rETHQdj0HH-29">
          <mxGeometry x="30" width="170" height="30" as="geometry">
            <mxRectangle width="170" height="30" as="alternateBounds" />
          </mxGeometry>
        </mxCell>
        <mxCell id="Uh1MCq1mp-rETHQdj0HH-32" value="" style="shape=partialRectangle;collapsible=0;dropTarget=0;pointerEvents=0;fillColor=none;points=[[0,0.5],[1,0.5]];portConstraint=eastwest;top=0;left=0;right=0;bottom=0;" vertex="1" parent="Uh1MCq1mp-rETHQdj0HH-25">
          <mxGeometry y="90" width="200" height="30" as="geometry" />
        </mxCell>
        <mxCell id="Uh1MCq1mp-rETHQdj0HH-33" value="" style="shape=partialRectangle;overflow=hidden;connectable=0;fillColor=none;top=0;left=0;bottom=0;right=0;" vertex="1" parent="Uh1MCq1mp-rETHQdj0HH-32">
          <mxGeometry width="30" height="30" as="geometry">
            <mxRectangle width="30" height="30" as="alternateBounds" />
          </mxGeometry>
        </mxCell>
        <mxCell id="Uh1MCq1mp-rETHQdj0HH-34" value="cost" style="shape=partialRectangle;overflow=hidden;connectable=0;fillColor=none;top=0;left=0;bottom=0;right=0;align=left;spacingLeft=6;" vertex="1" parent="Uh1MCq1mp-rETHQdj0HH-32">
          <mxGeometry x="30" width="170" height="30" as="geometry">
            <mxRectangle width="170" height="30" as="alternateBounds" />
          </mxGeometry>
        </mxCell>
        <mxCell id="Uh1MCq1mp-rETHQdj0HH-47" value="Training" style="shape=table;startSize=30;container=1;collapsible=1;childLayout=tableLayout;fixedRows=1;rowLines=0;fontStyle=1;align=center;resizeLast=1;" vertex="1" parent="1">
          <mxGeometry x="600" y="200" width="200" height="140" as="geometry" />
        </mxCell>
        <mxCell id="Uh1MCq1mp-rETHQdj0HH-48" value="" style="shape=partialRectangle;collapsible=0;dropTarget=0;pointerEvents=0;fillColor=none;points=[[0,0.5],[1,0.5]];portConstraint=eastwest;top=0;left=0;right=0;bottom=1;" vertex="1" parent="Uh1MCq1mp-rETHQdj0HH-47">
          <mxGeometry y="30" width="200" height="30" as="geometry" />
        </mxCell>
        <mxCell id="Uh1MCq1mp-rETHQdj0HH-49" value="PK" style="shape=partialRectangle;overflow=hidden;connectable=0;fillColor=none;top=0;left=0;bottom=0;right=0;fontStyle=1;" vertex="1" parent="Uh1MCq1mp-rETHQdj0HH-48">
          <mxGeometry width="30" height="30" as="geometry">
            <mxRectangle width="30" height="30" as="alternateBounds" />
          </mxGeometry>
        </mxCell>
        <mxCell id="Uh1MCq1mp-rETHQdj0HH-50" value="TRAINING_TYPE" style="shape=partialRectangle;overflow=hidden;connectable=0;fillColor=none;top=0;left=0;bottom=0;right=0;align=left;spacingLeft=6;fontStyle=5;" vertex="1" parent="Uh1MCq1mp-rETHQdj0HH-48">
          <mxGeometry x="30" width="170" height="30" as="geometry">
            <mxRectangle width="170" height="30" as="alternateBounds" />
          </mxGeometry>
        </mxCell>
        <mxCell id="Uh1MCq1mp-rETHQdj0HH-51" value="" style="shape=partialRectangle;collapsible=0;dropTarget=0;pointerEvents=0;fillColor=none;points=[[0,0.5],[1,0.5]];portConstraint=eastwest;top=0;left=0;right=0;bottom=0;" vertex="1" parent="Uh1MCq1mp-rETHQdj0HH-47">
          <mxGeometry y="60" width="200" height="70" as="geometry" />
        </mxCell>
        <mxCell id="Uh1MCq1mp-rETHQdj0HH-52" value="" style="shape=partialRectangle;overflow=hidden;connectable=0;fillColor=none;top=0;left=0;bottom=0;right=0;" vertex="1" parent="Uh1MCq1mp-rETHQdj0HH-51">
          <mxGeometry width="30" height="70" as="geometry">
            <mxRectangle width="30" height="70" as="alternateBounds" />
          </mxGeometry>
        </mxCell>
        <mxCell id="Uh1MCq1mp-rETHQdj0HH-53" value="employee&#xa;&#xa;cost&#xa;&#xa;time" style="shape=partialRectangle;overflow=hidden;connectable=0;fillColor=none;top=0;left=0;bottom=0;right=0;align=left;spacingLeft=6;" vertex="1" parent="Uh1MCq1mp-rETHQdj0HH-51">
          <mxGeometry x="30" width="170" height="70" as="geometry">
            <mxRectangle width="170" height="70" as="alternateBounds" />
          </mxGeometry>
        </mxCell>
        <mxCell id="Uh1MCq1mp-rETHQdj0HH-54" style="edgeStyle=orthogonalEdgeStyle;rounded=0;orthogonalLoop=1;jettySize=auto;html=1;exitX=1;exitY=0.5;exitDx=0;exitDy=0;entryX=0;entryY=0.5;entryDx=0;entryDy=0;endArrow=ERzeroToMany;endFill=0;startArrow=ERone;startFill=0;" edge="1" parent="1" source="C-vyLk0tnHw3VtMMgP7b-6" target="Uh1MCq1mp-rETHQdj0HH-51">
          <mxGeometry relative="1" as="geometry" />
        </mxCell>
        <mxCell id="Uh1MCq1mp-rETHQdj0HH-55" value="needs" style="edgeLabel;html=1;align=center;verticalAlign=middle;resizable=0;points=[];" vertex="1" connectable="0" parent="Uh1MCq1mp-rETHQdj0HH-54">
          <mxGeometry x="0.0283" relative="1" as="geometry">
            <mxPoint as="offset" />
          </mxGeometry>
        </mxCell>
        <mxCell id="Uh1MCq1mp-rETHQdj0HH-56" value="Patient" style="shape=table;startSize=30;container=1;collapsible=1;childLayout=tableLayout;fixedRows=1;rowLines=0;fontStyle=1;align=center;resizeLast=1;" vertex="1" parent="1">
          <mxGeometry x="40" y="360" width="200" height="130" as="geometry" />
        </mxCell>
        <mxCell id="Uh1MCq1mp-rETHQdj0HH-57" value="" style="shape=partialRectangle;collapsible=0;dropTarget=0;pointerEvents=0;fillColor=none;points=[[0,0.5],[1,0.5]];portConstraint=eastwest;top=0;left=0;right=0;bottom=1;" vertex="1" parent="Uh1MCq1mp-rETHQdj0HH-56">
          <mxGeometry y="30" width="200" height="30" as="geometry" />
        </mxCell>
        <mxCell id="Uh1MCq1mp-rETHQdj0HH-58" value="PK" style="shape=partialRectangle;overflow=hidden;connectable=0;fillColor=none;top=0;left=0;bottom=0;right=0;fontStyle=1;" vertex="1" parent="Uh1MCq1mp-rETHQdj0HH-57">
          <mxGeometry width="30" height="30" as="geometry">
            <mxRectangle width="30" height="30" as="alternateBounds" />
          </mxGeometry>
        </mxCell>
        <mxCell id="Uh1MCq1mp-rETHQdj0HH-59" value="PATIENT_ID" style="shape=partialRectangle;overflow=hidden;connectable=0;fillColor=none;top=0;left=0;bottom=0;right=0;align=left;spacingLeft=6;fontStyle=5;" vertex="1" parent="Uh1MCq1mp-rETHQdj0HH-57">
          <mxGeometry x="30" width="170" height="30" as="geometry">
            <mxRectangle width="170" height="30" as="alternateBounds" />
          </mxGeometry>
        </mxCell>
        <mxCell id="Uh1MCq1mp-rETHQdj0HH-60" value="" style="shape=partialRectangle;collapsible=0;dropTarget=0;pointerEvents=0;fillColor=none;points=[[0,0.5],[1,0.5]];portConstraint=eastwest;top=0;left=0;right=0;bottom=0;" vertex="1" parent="Uh1MCq1mp-rETHQdj0HH-56">
          <mxGeometry y="60" width="200" height="30" as="geometry" />
        </mxCell>
        <mxCell id="Uh1MCq1mp-rETHQdj0HH-61" value="" style="shape=partialRectangle;overflow=hidden;connectable=0;fillColor=none;top=0;left=0;bottom=0;right=0;" vertex="1" parent="Uh1MCq1mp-rETHQdj0HH-60">
          <mxGeometry width="30" height="30" as="geometry">
            <mxRectangle width="30" height="30" as="alternateBounds" />
          </mxGeometry>
        </mxCell>
        <mxCell id="Uh1MCq1mp-rETHQdj0HH-62" value="name" style="shape=partialRectangle;overflow=hidden;connectable=0;fillColor=none;top=0;left=0;bottom=0;right=0;align=left;spacingLeft=6;" vertex="1" parent="Uh1MCq1mp-rETHQdj0HH-60">
          <mxGeometry x="30" width="170" height="30" as="geometry">
            <mxRectangle width="170" height="30" as="alternateBounds" />
          </mxGeometry>
        </mxCell>
        <mxCell id="Uh1MCq1mp-rETHQdj0HH-63" value="" style="shape=partialRectangle;collapsible=0;dropTarget=0;pointerEvents=0;fillColor=none;points=[[0,0.5],[1,0.5]];portConstraint=eastwest;top=0;left=0;right=0;bottom=0;" vertex="1" parent="Uh1MCq1mp-rETHQdj0HH-56">
          <mxGeometry y="90" width="200" height="30" as="geometry" />
        </mxCell>
        <mxCell id="Uh1MCq1mp-rETHQdj0HH-64" value="" style="shape=partialRectangle;overflow=hidden;connectable=0;fillColor=none;top=0;left=0;bottom=0;right=0;" vertex="1" parent="Uh1MCq1mp-rETHQdj0HH-63">
          <mxGeometry width="30" height="30" as="geometry">
            <mxRectangle width="30" height="30" as="alternateBounds" />
          </mxGeometry>
        </mxCell>
        <mxCell id="Uh1MCq1mp-rETHQdj0HH-65" value="contact" style="shape=partialRectangle;overflow=hidden;connectable=0;fillColor=none;top=0;left=0;bottom=0;right=0;align=left;spacingLeft=6;" vertex="1" parent="Uh1MCq1mp-rETHQdj0HH-63">
          <mxGeometry x="30" width="170" height="30" as="geometry">
            <mxRectangle width="170" height="30" as="alternateBounds" />
          </mxGeometry>
        </mxCell>
        <mxCell id="Uh1MCq1mp-rETHQdj0HH-77" style="edgeStyle=orthogonalEdgeStyle;rounded=0;orthogonalLoop=1;jettySize=auto;html=1;exitX=1;exitY=0.5;exitDx=0;exitDy=0;entryX=0;entryY=0.5;entryDx=0;entryDy=0;endArrow=ERoneToMany;endFill=0;startArrow=ERone;startFill=0;" edge="1" parent="1" source="Uh1MCq1mp-rETHQdj0HH-60">
          <mxGeometry relative="1" as="geometry">
            <mxPoint x="320" y="435" as="targetPoint" />
          </mxGeometry>
        </mxCell>
        <mxCell id="Uh1MCq1mp-rETHQdj0HH-89" value="covered&lt;div&gt;by&lt;/div&gt;" style="edgeLabel;html=1;align=center;verticalAlign=middle;resizable=0;points=[];" vertex="1" connectable="0" parent="Uh1MCq1mp-rETHQdj0HH-77">
          <mxGeometry x="-0.0794" y="-2" relative="1" as="geometry">
            <mxPoint as="offset" />
          </mxGeometry>
        </mxCell>
        <mxCell id="Uh1MCq1mp-rETHQdj0HH-78" value="Provider" style="shape=table;startSize=30;container=1;collapsible=1;childLayout=tableLayout;fixedRows=1;rowLines=0;fontStyle=1;align=center;resizeLast=1;" vertex="1" parent="1">
          <mxGeometry x="600" y="360" width="200" height="130" as="geometry" />
        </mxCell>
        <mxCell id="Uh1MCq1mp-rETHQdj0HH-79" value="" style="shape=partialRectangle;collapsible=0;dropTarget=0;pointerEvents=0;fillColor=none;points=[[0,0.5],[1,0.5]];portConstraint=eastwest;top=0;left=0;right=0;bottom=1;" vertex="1" parent="Uh1MCq1mp-rETHQdj0HH-78">
          <mxGeometry y="30" width="200" height="30" as="geometry" />
        </mxCell>
        <mxCell id="Uh1MCq1mp-rETHQdj0HH-80" value="PK" style="shape=partialRectangle;overflow=hidden;connectable=0;fillColor=none;top=0;left=0;bottom=0;right=0;fontStyle=1;" vertex="1" parent="Uh1MCq1mp-rETHQdj0HH-79">
          <mxGeometry width="30" height="30" as="geometry">
            <mxRectangle width="30" height="30" as="alternateBounds" />
          </mxGeometry>
        </mxCell>
        <mxCell id="Uh1MCq1mp-rETHQdj0HH-81" value="INSURANCE_ID" style="shape=partialRectangle;overflow=hidden;connectable=0;fillColor=none;top=0;left=0;bottom=0;right=0;align=left;spacingLeft=6;fontStyle=5;" vertex="1" parent="Uh1MCq1mp-rETHQdj0HH-79">
          <mxGeometry x="30" width="170" height="30" as="geometry">
            <mxRectangle width="170" height="30" as="alternateBounds" />
          </mxGeometry>
        </mxCell>
        <mxCell id="Uh1MCq1mp-rETHQdj0HH-82" value="" style="shape=partialRectangle;collapsible=0;dropTarget=0;pointerEvents=0;fillColor=none;points=[[0,0.5],[1,0.5]];portConstraint=eastwest;top=0;left=0;right=0;bottom=0;" vertex="1" parent="Uh1MCq1mp-rETHQdj0HH-78">
          <mxGeometry y="60" width="200" height="30" as="geometry" />
        </mxCell>
        <mxCell id="Uh1MCq1mp-rETHQdj0HH-83" value="" style="shape=partialRectangle;overflow=hidden;connectable=0;fillColor=none;top=0;left=0;bottom=0;right=0;" vertex="1" parent="Uh1MCq1mp-rETHQdj0HH-82">
          <mxGeometry width="30" height="30" as="geometry">
            <mxRectangle width="30" height="30" as="alternateBounds" />
          </mxGeometry>
        </mxCell>
        <mxCell id="Uh1MCq1mp-rETHQdj0HH-84" value="name" style="shape=partialRectangle;overflow=hidden;connectable=0;fillColor=none;top=0;left=0;bottom=0;right=0;align=left;spacingLeft=6;" vertex="1" parent="Uh1MCq1mp-rETHQdj0HH-82">
          <mxGeometry x="30" width="170" height="30" as="geometry">
            <mxRectangle width="170" height="30" as="alternateBounds" />
          </mxGeometry>
        </mxCell>
        <mxCell id="Uh1MCq1mp-rETHQdj0HH-85" value="" style="shape=partialRectangle;collapsible=0;dropTarget=0;pointerEvents=0;fillColor=none;points=[[0,0.5],[1,0.5]];portConstraint=eastwest;top=0;left=0;right=0;bottom=0;" vertex="1" parent="Uh1MCq1mp-rETHQdj0HH-78">
          <mxGeometry y="90" width="200" height="30" as="geometry" />
        </mxCell>
        <mxCell id="Uh1MCq1mp-rETHQdj0HH-86" value="" style="shape=partialRectangle;overflow=hidden;connectable=0;fillColor=none;top=0;left=0;bottom=0;right=0;" vertex="1" parent="Uh1MCq1mp-rETHQdj0HH-85">
          <mxGeometry width="30" height="30" as="geometry">
            <mxRectangle width="30" height="30" as="alternateBounds" />
          </mxGeometry>
        </mxCell>
        <mxCell id="Uh1MCq1mp-rETHQdj0HH-87" value="contact" style="shape=partialRectangle;overflow=hidden;connectable=0;fillColor=none;top=0;left=0;bottom=0;right=0;align=left;spacingLeft=6;" vertex="1" parent="Uh1MCq1mp-rETHQdj0HH-85">
          <mxGeometry x="30" width="170" height="30" as="geometry">
            <mxRectangle width="170" height="30" as="alternateBounds" />
          </mxGeometry>
        </mxCell>
        <mxCell id="Uh1MCq1mp-rETHQdj0HH-88" style="edgeStyle=orthogonalEdgeStyle;rounded=0;orthogonalLoop=1;jettySize=auto;html=1;exitX=1;exitY=0.5;exitDx=0;exitDy=0;entryX=0;entryY=0.5;entryDx=0;entryDy=0;endArrow=ERone;endFill=0;startArrow=ERone;startFill=0;" edge="1" parent="1" target="Uh1MCq1mp-rETHQdj0HH-82">
          <mxGeometry relative="1" as="geometry">
            <mxPoint x="520.0000000000002" y="435" as="sourcePoint" />
          </mxGeometry>
        </mxCell>
        <mxCell id="Uh1MCq1mp-rETHQdj0HH-90" value="has" style="edgeLabel;html=1;align=center;verticalAlign=middle;resizable=0;points=[];" vertex="1" connectable="0" parent="Uh1MCq1mp-rETHQdj0HH-88">
          <mxGeometry x="0.0088" y="-1" relative="1" as="geometry">
            <mxPoint as="offset" />
          </mxGeometry>
        </mxCell>
        <mxCell id="Uh1MCq1mp-rETHQdj0HH-103" style="edgeStyle=orthogonalEdgeStyle;rounded=0;orthogonalLoop=1;jettySize=auto;html=1;exitX=0.5;exitY=0;exitDx=0;exitDy=0;entryX=0.5;entryY=1;entryDx=0;entryDy=0;startArrow=ERone;startFill=0;endArrow=ERone;endFill=0;" edge="1" parent="1" source="Uh1MCq1mp-rETHQdj0HH-91" target="Uh1MCq1mp-rETHQdj0HH-78">
          <mxGeometry relative="1" as="geometry" />
        </mxCell>
        <mxCell id="Uh1MCq1mp-rETHQdj0HH-106" value="pays" style="edgeLabel;html=1;align=center;verticalAlign=middle;resizable=0;points=[];" vertex="1" connectable="0" parent="Uh1MCq1mp-rETHQdj0HH-103">
          <mxGeometry x="0.0824" y="-3" relative="1" as="geometry">
            <mxPoint as="offset" />
          </mxGeometry>
        </mxCell>
        <mxCell id="Uh1MCq1mp-rETHQdj0HH-104" style="edgeStyle=orthogonalEdgeStyle;rounded=0;orthogonalLoop=1;jettySize=auto;html=1;exitX=0;exitY=0.133;exitDx=0;exitDy=0;entryX=0.5;entryY=1;entryDx=0;entryDy=0;startArrow=ERone;startFill=0;endArrow=ERone;endFill=0;exitPerimeter=0;" edge="1" parent="1" source="Uh1MCq1mp-rETHQdj0HH-91" target="Uh1MCq1mp-rETHQdj0HH-56">
          <mxGeometry relative="1" as="geometry">
            <Array as="points">
              <mxPoint x="280" y="540" />
              <mxPoint x="280" y="510" />
              <mxPoint x="140" y="510" />
            </Array>
          </mxGeometry>
        </mxCell>
        <mxCell id="Uh1MCq1mp-rETHQdj0HH-105" value="pays" style="edgeLabel;html=1;align=center;verticalAlign=middle;resizable=0;points=[];" vertex="1" connectable="0" parent="Uh1MCq1mp-rETHQdj0HH-104">
          <mxGeometry x="0.0731" y="-2" relative="1" as="geometry">
            <mxPoint as="offset" />
          </mxGeometry>
        </mxCell>
        <mxCell id="Uh1MCq1mp-rETHQdj0HH-166" style="edgeStyle=orthogonalEdgeStyle;rounded=0;orthogonalLoop=1;jettySize=auto;html=1;exitX=0.5;exitY=1;exitDx=0;exitDy=0;entryX=0.5;entryY=0;entryDx=0;entryDy=0;endArrow=ERone;endFill=0;startArrow=ERmany;startFill=0;" edge="1" parent="1" source="Uh1MCq1mp-rETHQdj0HH-91" target="Uh1MCq1mp-rETHQdj0HH-164">
          <mxGeometry relative="1" as="geometry" />
        </mxCell>
        <mxCell id="Uh1MCq1mp-rETHQdj0HH-91" value="Bill" style="shape=table;startSize=30;container=1;collapsible=1;childLayout=tableLayout;fixedRows=1;rowLines=0;fontStyle=1;align=center;resizeLast=1;" vertex="1" parent="1">
          <mxGeometry x="600" y="520" width="200" height="150" as="geometry" />
        </mxCell>
        <mxCell id="Uh1MCq1mp-rETHQdj0HH-92" value="" style="shape=partialRectangle;collapsible=0;dropTarget=0;pointerEvents=0;fillColor=none;points=[[0,0.5],[1,0.5]];portConstraint=eastwest;top=0;left=0;right=0;bottom=1;" vertex="1" parent="Uh1MCq1mp-rETHQdj0HH-91">
          <mxGeometry y="30" width="200" height="30" as="geometry" />
        </mxCell>
        <mxCell id="Uh1MCq1mp-rETHQdj0HH-93" value="PK" style="shape=partialRectangle;overflow=hidden;connectable=0;fillColor=none;top=0;left=0;bottom=0;right=0;fontStyle=1;" vertex="1" parent="Uh1MCq1mp-rETHQdj0HH-92">
          <mxGeometry width="30" height="30" as="geometry">
            <mxRectangle width="30" height="30" as="alternateBounds" />
          </mxGeometry>
        </mxCell>
        <mxCell id="Uh1MCq1mp-rETHQdj0HH-94" value="BILLING_ID" style="shape=partialRectangle;overflow=hidden;connectable=0;fillColor=none;top=0;left=0;bottom=0;right=0;align=left;spacingLeft=6;fontStyle=5;" vertex="1" parent="Uh1MCq1mp-rETHQdj0HH-92">
          <mxGeometry x="30" width="170" height="30" as="geometry">
            <mxRectangle width="170" height="30" as="alternateBounds" />
          </mxGeometry>
        </mxCell>
        <mxCell id="Uh1MCq1mp-rETHQdj0HH-95" value="" style="shape=partialRectangle;collapsible=0;dropTarget=0;pointerEvents=0;fillColor=none;points=[[0,0.5],[1,0.5]];portConstraint=eastwest;top=0;left=0;right=0;bottom=0;" vertex="1" parent="Uh1MCq1mp-rETHQdj0HH-91">
          <mxGeometry y="60" width="200" height="80" as="geometry" />
        </mxCell>
        <mxCell id="Uh1MCq1mp-rETHQdj0HH-96" value="&#xa;&#xa;&#xa;&#xa;FK" style="shape=partialRectangle;overflow=hidden;connectable=0;fillColor=none;top=0;left=0;bottom=0;right=0;" vertex="1" parent="Uh1MCq1mp-rETHQdj0HH-95">
          <mxGeometry width="30" height="80" as="geometry">
            <mxRectangle width="30" height="80" as="alternateBounds" />
          </mxGeometry>
        </mxCell>
        <mxCell id="Uh1MCq1mp-rETHQdj0HH-97" value="amount billed&#xa;&#xa;insurance covered&#xa;&#xa;PATIENT_ID" style="shape=partialRectangle;overflow=hidden;connectable=0;fillColor=none;top=0;left=0;bottom=0;right=0;align=left;spacingLeft=6;" vertex="1" parent="Uh1MCq1mp-rETHQdj0HH-95">
          <mxGeometry x="30" width="170" height="80" as="geometry">
            <mxRectangle width="170" height="80" as="alternateBounds" />
          </mxGeometry>
        </mxCell>
        <mxCell id="Uh1MCq1mp-rETHQdj0HH-98" value="Billing Info" style="shape=table;startSize=30;container=1;collapsible=1;childLayout=tableLayout;fixedRows=1;rowLines=0;fontStyle=1;align=center;resizeLast=1;" vertex="1" parent="1">
          <mxGeometry x="320" y="560" width="200" height="120" as="geometry" />
        </mxCell>
        <mxCell id="Uh1MCq1mp-rETHQdj0HH-99" value="" style="shape=partialRectangle;collapsible=0;dropTarget=0;pointerEvents=0;fillColor=none;points=[[0,0.5],[1,0.5]];portConstraint=eastwest;top=0;left=0;right=0;bottom=1;" vertex="1" parent="Uh1MCq1mp-rETHQdj0HH-98">
          <mxGeometry y="30" width="200" height="80" as="geometry" />
        </mxCell>
        <mxCell id="Uh1MCq1mp-rETHQdj0HH-100" value="PK, FK1&#xa;&#xa;PK, FK2" style="shape=partialRectangle;overflow=hidden;connectable=0;fillColor=none;top=0;left=0;bottom=0;right=0;fontStyle=1;" vertex="1" parent="Uh1MCq1mp-rETHQdj0HH-99">
          <mxGeometry width="60" height="80" as="geometry">
            <mxRectangle width="60" height="80" as="alternateBounds" />
          </mxGeometry>
        </mxCell>
        <mxCell id="Uh1MCq1mp-rETHQdj0HH-101" value="BILLING_ID&#xa;&#xa;TREATMENT_CODE" style="shape=partialRectangle;overflow=hidden;connectable=0;fillColor=none;top=0;left=0;bottom=0;right=0;align=left;spacingLeft=6;fontStyle=5;" vertex="1" parent="Uh1MCq1mp-rETHQdj0HH-99">
          <mxGeometry x="60" width="140" height="80" as="geometry">
            <mxRectangle width="140" height="80" as="alternateBounds" />
          </mxGeometry>
        </mxCell>
        <mxCell id="Uh1MCq1mp-rETHQdj0HH-102" style="edgeStyle=orthogonalEdgeStyle;rounded=0;orthogonalLoop=1;jettySize=auto;html=1;exitX=1;exitY=0.5;exitDx=0;exitDy=0;endArrow=ERone;endFill=0;startArrow=ERone;startFill=0;" edge="1" parent="1" source="Uh1MCq1mp-rETHQdj0HH-99" target="Uh1MCq1mp-rETHQdj0HH-92">
          <mxGeometry relative="1" as="geometry" />
        </mxCell>
        <mxCell id="Uh1MCq1mp-rETHQdj0HH-149" style="edgeStyle=orthogonalEdgeStyle;rounded=0;orthogonalLoop=1;jettySize=auto;html=1;entryX=0.5;entryY=0;entryDx=0;entryDy=0;endArrow=ERone;endFill=0;startArrow=ERone;startFill=0;" edge="1" parent="1" source="Uh1MCq1mp-rETHQdj0HH-107" target="Uh1MCq1mp-rETHQdj0HH-128">
          <mxGeometry relative="1" as="geometry" />
        </mxCell>
        <mxCell id="Uh1MCq1mp-rETHQdj0HH-150" value="in" style="edgeLabel;html=1;align=center;verticalAlign=middle;resizable=0;points=[];" vertex="1" connectable="0" parent="Uh1MCq1mp-rETHQdj0HH-149">
          <mxGeometry x="-0.1179" y="2" relative="1" as="geometry">
            <mxPoint as="offset" />
          </mxGeometry>
        </mxCell>
        <mxCell id="Uh1MCq1mp-rETHQdj0HH-107" value="Appointment" style="shape=table;startSize=30;container=1;collapsible=1;childLayout=tableLayout;fixedRows=1;rowLines=0;fontStyle=1;align=center;resizeLast=1;" vertex="1" parent="1">
          <mxGeometry x="40" y="520" width="200" height="230" as="geometry" />
        </mxCell>
        <mxCell id="Uh1MCq1mp-rETHQdj0HH-108" value="" style="shape=partialRectangle;collapsible=0;dropTarget=0;pointerEvents=0;fillColor=none;points=[[0,0.5],[1,0.5]];portConstraint=eastwest;top=0;left=0;right=0;bottom=1;" vertex="1" parent="Uh1MCq1mp-rETHQdj0HH-107">
          <mxGeometry y="30" width="200" height="30" as="geometry" />
        </mxCell>
        <mxCell id="Uh1MCq1mp-rETHQdj0HH-109" value="PK" style="shape=partialRectangle;overflow=hidden;connectable=0;fillColor=none;top=0;left=0;bottom=0;right=0;fontStyle=1;" vertex="1" parent="Uh1MCq1mp-rETHQdj0HH-108">
          <mxGeometry width="30" height="30" as="geometry">
            <mxRectangle width="30" height="30" as="alternateBounds" />
          </mxGeometry>
        </mxCell>
        <mxCell id="Uh1MCq1mp-rETHQdj0HH-110" value="APPOINTMENT_ID" style="shape=partialRectangle;overflow=hidden;connectable=0;fillColor=none;top=0;left=0;bottom=0;right=0;align=left;spacingLeft=6;fontStyle=5;" vertex="1" parent="Uh1MCq1mp-rETHQdj0HH-108">
          <mxGeometry x="30" width="170" height="30" as="geometry">
            <mxRectangle width="170" height="30" as="alternateBounds" />
          </mxGeometry>
        </mxCell>
        <mxCell id="Uh1MCq1mp-rETHQdj0HH-111" value="" style="shape=partialRectangle;collapsible=0;dropTarget=0;pointerEvents=0;fillColor=none;points=[[0,0.5],[1,0.5]];portConstraint=eastwest;top=0;left=0;right=0;bottom=0;" vertex="1" parent="Uh1MCq1mp-rETHQdj0HH-107">
          <mxGeometry y="60" width="200" height="170" as="geometry" />
        </mxCell>
        <mxCell id="Uh1MCq1mp-rETHQdj0HH-112" value="&#xa;&#xa;&#xa;&#xa;&#xa;&#xa;FK&#xa;&#xa;FK&#xa;&#xa;FK" style="shape=partialRectangle;overflow=hidden;connectable=0;fillColor=none;top=0;left=0;bottom=0;right=0;" vertex="1" parent="Uh1MCq1mp-rETHQdj0HH-111">
          <mxGeometry width="30" height="170" as="geometry">
            <mxRectangle width="30" height="170" as="alternateBounds" />
          </mxGeometry>
        </mxCell>
        <mxCell id="Uh1MCq1mp-rETHQdj0HH-113" value="date&#xa;&#xa;time&#xa;&#xa;status&#xa;&#xa;PATIENT_ID&#xa;&#xa;DENTIST_ID&#xa;&#xa;ROOM_ID" style="shape=partialRectangle;overflow=hidden;connectable=0;fillColor=none;top=0;left=0;bottom=0;right=0;align=left;spacingLeft=6;" vertex="1" parent="Uh1MCq1mp-rETHQdj0HH-111">
          <mxGeometry x="30" width="170" height="170" as="geometry">
            <mxRectangle width="170" height="170" as="alternateBounds" />
          </mxGeometry>
        </mxCell>
        <mxCell id="Uh1MCq1mp-rETHQdj0HH-114" style="edgeStyle=orthogonalEdgeStyle;rounded=0;orthogonalLoop=1;jettySize=auto;html=1;exitX=0;exitY=0.5;exitDx=0;exitDy=0;entryX=0;entryY=0.5;entryDx=0;entryDy=0;endArrow=ERoneToMany;endFill=0;startArrow=ERone;startFill=0;" edge="1" parent="1" source="Uh1MCq1mp-rETHQdj0HH-60" target="Uh1MCq1mp-rETHQdj0HH-111">
          <mxGeometry relative="1" as="geometry" />
        </mxCell>
        <mxCell id="Uh1MCq1mp-rETHQdj0HH-115" value="books" style="edgeLabel;html=1;align=center;verticalAlign=middle;resizable=0;points=[];" vertex="1" connectable="0" parent="Uh1MCq1mp-rETHQdj0HH-114">
          <mxGeometry x="-0.0053" y="3" relative="1" as="geometry">
            <mxPoint as="offset" />
          </mxGeometry>
        </mxCell>
        <mxCell id="Uh1MCq1mp-rETHQdj0HH-126" style="edgeStyle=orthogonalEdgeStyle;rounded=0;orthogonalLoop=1;jettySize=auto;html=1;exitX=0;exitY=0.5;exitDx=0;exitDy=0;entryX=0;entryY=0.571;entryDx=0;entryDy=0;endArrow=ERmany;endFill=0;startArrow=ERone;startFill=0;entryPerimeter=0;" edge="1" parent="1" source="C-vyLk0tnHw3VtMMgP7b-27" target="Uh1MCq1mp-rETHQdj0HH-132">
          <mxGeometry relative="1" as="geometry">
            <mxPoint x="40" y="845" as="targetPoint" />
            <Array as="points">
              <mxPoint x="10" y="115" />
              <mxPoint x="10" y="900" />
            </Array>
          </mxGeometry>
        </mxCell>
        <mxCell id="Uh1MCq1mp-rETHQdj0HH-127" value="has" style="edgeLabel;html=1;align=center;verticalAlign=middle;resizable=0;points=[];" vertex="1" connectable="0" parent="Uh1MCq1mp-rETHQdj0HH-126">
          <mxGeometry x="-0.2665" y="1" relative="1" as="geometry">
            <mxPoint as="offset" />
          </mxGeometry>
        </mxCell>
        <mxCell id="Uh1MCq1mp-rETHQdj0HH-167" style="edgeStyle=orthogonalEdgeStyle;rounded=0;orthogonalLoop=1;jettySize=auto;html=1;exitX=0.5;exitY=1;exitDx=0;exitDy=0;entryX=0.5;entryY=1;entryDx=0;entryDy=0;endArrow=ERone;endFill=0;startArrow=ERmany;startFill=0;" edge="1" parent="1" source="Uh1MCq1mp-rETHQdj0HH-128" target="Uh1MCq1mp-rETHQdj0HH-165">
          <mxGeometry relative="1" as="geometry" />
        </mxCell>
        <mxCell id="Uh1MCq1mp-rETHQdj0HH-128" value="Room" style="shape=table;startSize=30;container=1;collapsible=1;childLayout=tableLayout;fixedRows=1;rowLines=0;fontStyle=1;align=center;resizeLast=1;" vertex="1" parent="1">
          <mxGeometry x="40" y="800" width="200" height="140" as="geometry" />
        </mxCell>
        <mxCell id="Uh1MCq1mp-rETHQdj0HH-129" value="" style="shape=partialRectangle;collapsible=0;dropTarget=0;pointerEvents=0;fillColor=none;points=[[0,0.5],[1,0.5]];portConstraint=eastwest;top=0;left=0;right=0;bottom=1;" vertex="1" parent="Uh1MCq1mp-rETHQdj0HH-128">
          <mxGeometry y="30" width="200" height="30" as="geometry" />
        </mxCell>
        <mxCell id="Uh1MCq1mp-rETHQdj0HH-130" value="PK" style="shape=partialRectangle;overflow=hidden;connectable=0;fillColor=none;top=0;left=0;bottom=0;right=0;fontStyle=1;" vertex="1" parent="Uh1MCq1mp-rETHQdj0HH-129">
          <mxGeometry width="30" height="30" as="geometry">
            <mxRectangle width="30" height="30" as="alternateBounds" />
          </mxGeometry>
        </mxCell>
        <mxCell id="Uh1MCq1mp-rETHQdj0HH-131" value="ROOM_ID" style="shape=partialRectangle;overflow=hidden;connectable=0;fillColor=none;top=0;left=0;bottom=0;right=0;align=left;spacingLeft=6;fontStyle=5;" vertex="1" parent="Uh1MCq1mp-rETHQdj0HH-129">
          <mxGeometry x="30" width="170" height="30" as="geometry">
            <mxRectangle width="170" height="30" as="alternateBounds" />
          </mxGeometry>
        </mxCell>
        <mxCell id="Uh1MCq1mp-rETHQdj0HH-132" value="" style="shape=partialRectangle;collapsible=0;dropTarget=0;pointerEvents=0;fillColor=none;points=[[0,0.5],[1,0.5]];portConstraint=eastwest;top=0;left=0;right=0;bottom=0;" vertex="1" parent="Uh1MCq1mp-rETHQdj0HH-128">
          <mxGeometry y="60" width="200" height="70" as="geometry" />
        </mxCell>
        <mxCell id="Uh1MCq1mp-rETHQdj0HH-133" value="" style="shape=partialRectangle;overflow=hidden;connectable=0;fillColor=none;top=0;left=0;bottom=0;right=0;" vertex="1" parent="Uh1MCq1mp-rETHQdj0HH-132">
          <mxGeometry width="30" height="70" as="geometry">
            <mxRectangle width="30" height="70" as="alternateBounds" />
          </mxGeometry>
        </mxCell>
        <mxCell id="Uh1MCq1mp-rETHQdj0HH-134" value="type&#xa;&#xa;status&#xa;&#xa;rent" style="shape=partialRectangle;overflow=hidden;connectable=0;fillColor=none;top=0;left=0;bottom=0;right=0;align=left;spacingLeft=6;" vertex="1" parent="Uh1MCq1mp-rETHQdj0HH-132">
          <mxGeometry x="30" width="170" height="70" as="geometry">
            <mxRectangle width="170" height="70" as="alternateBounds" />
          </mxGeometry>
        </mxCell>
        <mxCell id="Uh1MCq1mp-rETHQdj0HH-135" style="edgeStyle=orthogonalEdgeStyle;rounded=0;orthogonalLoop=1;jettySize=auto;html=1;exitX=0;exitY=0.5;exitDx=0;exitDy=0;entryX=0;entryY=1;entryDx=0;entryDy=0;entryPerimeter=0;startArrow=ERoneToMany;startFill=0;endArrow=ERoneToMany;endFill=0;" edge="1" parent="1" source="Uh1MCq1mp-rETHQdj0HH-9" target="Uh1MCq1mp-rETHQdj0HH-111">
          <mxGeometry relative="1" as="geometry">
            <Array as="points">
              <mxPoint x="30" y="275" />
              <mxPoint x="30" y="750" />
            </Array>
          </mxGeometry>
        </mxCell>
        <mxCell id="Uh1MCq1mp-rETHQdj0HH-136" value="attends" style="edgeLabel;html=1;align=center;verticalAlign=middle;resizable=0;points=[];" vertex="1" connectable="0" parent="Uh1MCq1mp-rETHQdj0HH-135">
          <mxGeometry x="-0.6765" relative="1" as="geometry">
            <mxPoint as="offset" />
          </mxGeometry>
        </mxCell>
        <mxCell id="Uh1MCq1mp-rETHQdj0HH-146" style="edgeStyle=orthogonalEdgeStyle;rounded=0;orthogonalLoop=1;jettySize=auto;html=1;exitX=0.5;exitY=0;exitDx=0;exitDy=0;entryX=0.5;entryY=1;entryDx=0;entryDy=0;startArrow=ERone;startFill=0;endArrow=ERoneToMany;endFill=0;" edge="1" parent="1" source="Uh1MCq1mp-rETHQdj0HH-137" target="Uh1MCq1mp-rETHQdj0HH-98">
          <mxGeometry relative="1" as="geometry" />
        </mxCell>
        <mxCell id="Uh1MCq1mp-rETHQdj0HH-147" value="has" style="edgeLabel;html=1;align=center;verticalAlign=middle;resizable=0;points=[];" vertex="1" connectable="0" parent="Uh1MCq1mp-rETHQdj0HH-146">
          <mxGeometry x="-0.007" y="-1" relative="1" as="geometry">
            <mxPoint as="offset" />
          </mxGeometry>
        </mxCell>
        <mxCell id="Uh1MCq1mp-rETHQdj0HH-137" value="Treatment" style="shape=table;startSize=30;container=1;collapsible=1;childLayout=tableLayout;fixedRows=1;rowLines=0;fontStyle=1;align=center;resizeLast=1;" vertex="1" parent="1">
          <mxGeometry x="320" y="720" width="200" height="210" as="geometry" />
        </mxCell>
        <mxCell id="Uh1MCq1mp-rETHQdj0HH-138" value="" style="shape=partialRectangle;collapsible=0;dropTarget=0;pointerEvents=0;fillColor=none;points=[[0,0.5],[1,0.5]];portConstraint=eastwest;top=0;left=0;right=0;bottom=1;" vertex="1" parent="Uh1MCq1mp-rETHQdj0HH-137">
          <mxGeometry y="30" width="200" height="30" as="geometry" />
        </mxCell>
        <mxCell id="Uh1MCq1mp-rETHQdj0HH-139" value="PK" style="shape=partialRectangle;overflow=hidden;connectable=0;fillColor=none;top=0;left=0;bottom=0;right=0;fontStyle=1;" vertex="1" parent="Uh1MCq1mp-rETHQdj0HH-138">
          <mxGeometry width="30" height="30" as="geometry">
            <mxRectangle width="30" height="30" as="alternateBounds" />
          </mxGeometry>
        </mxCell>
        <mxCell id="Uh1MCq1mp-rETHQdj0HH-140" value="TREATMENT_CODE" style="shape=partialRectangle;overflow=hidden;connectable=0;fillColor=none;top=0;left=0;bottom=0;right=0;align=left;spacingLeft=6;fontStyle=5;" vertex="1" parent="Uh1MCq1mp-rETHQdj0HH-138">
          <mxGeometry x="30" width="170" height="30" as="geometry">
            <mxRectangle width="170" height="30" as="alternateBounds" />
          </mxGeometry>
        </mxCell>
        <mxCell id="Uh1MCq1mp-rETHQdj0HH-141" value="" style="shape=partialRectangle;collapsible=0;dropTarget=0;pointerEvents=0;fillColor=none;points=[[0,0.5],[1,0.5]];portConstraint=eastwest;top=0;left=0;right=0;bottom=0;" vertex="1" parent="Uh1MCq1mp-rETHQdj0HH-137">
          <mxGeometry y="60" width="200" height="150" as="geometry" />
        </mxCell>
        <mxCell id="Uh1MCq1mp-rETHQdj0HH-142" value="&#xa;&#xa;&#xa;&#xa;FK&#xa;&#xa;FK&#xa;&#xa;FK" style="shape=partialRectangle;overflow=hidden;connectable=0;fillColor=none;top=0;left=0;bottom=0;right=0;" vertex="1" parent="Uh1MCq1mp-rETHQdj0HH-141">
          <mxGeometry width="30" height="150" as="geometry">
            <mxRectangle width="30" height="150" as="alternateBounds" />
          </mxGeometry>
        </mxCell>
        <mxCell id="Uh1MCq1mp-rETHQdj0HH-143" value="name&#xa;&#xa;cost&#xa;&#xa;PATIENT_ID&#xa;&#xa;DENTIST_ID&#xa;&#xa;APPOINTMENT_ID" style="shape=partialRectangle;overflow=hidden;connectable=0;fillColor=none;top=0;left=0;bottom=0;right=0;align=left;spacingLeft=6;" vertex="1" parent="Uh1MCq1mp-rETHQdj0HH-141">
          <mxGeometry x="30" width="170" height="150" as="geometry">
            <mxRectangle width="170" height="150" as="alternateBounds" />
          </mxGeometry>
        </mxCell>
        <mxCell id="Uh1MCq1mp-rETHQdj0HH-144" style="edgeStyle=orthogonalEdgeStyle;rounded=0;orthogonalLoop=1;jettySize=auto;html=1;exitX=1;exitY=0.5;exitDx=0;exitDy=0;endArrow=ERoneToMany;endFill=0;startArrow=ERone;startFill=0;" edge="1" parent="1" source="Uh1MCq1mp-rETHQdj0HH-111" target="Uh1MCq1mp-rETHQdj0HH-141">
          <mxGeometry relative="1" as="geometry" />
        </mxCell>
        <mxCell id="Uh1MCq1mp-rETHQdj0HH-145" value="includes" style="edgeLabel;html=1;align=center;verticalAlign=middle;resizable=0;points=[];" vertex="1" connectable="0" parent="Uh1MCq1mp-rETHQdj0HH-144">
          <mxGeometry x="-0.0284" y="-2" relative="1" as="geometry">
            <mxPoint as="offset" />
          </mxGeometry>
        </mxCell>
        <mxCell id="Uh1MCq1mp-rETHQdj0HH-148" value="Steven Xie&lt;div&gt;srxie@usc.edu&lt;/div&gt;" style="text;html=1;align=center;verticalAlign=middle;resizable=0;points=[];autosize=1;strokeColor=none;fillColor=none;" vertex="1" parent="1">
          <mxGeometry width="100" height="40" as="geometry" />
        </mxCell>
        <mxCell id="Uh1MCq1mp-rETHQdj0HH-154" value="Insurance Info" style="shape=table;startSize=30;container=1;collapsible=1;childLayout=tableLayout;fixedRows=1;rowLines=0;fontStyle=1;align=center;resizeLast=1;" vertex="1" parent="1">
          <mxGeometry x="320" y="360" width="200" height="170" as="geometry" />
        </mxCell>
        <mxCell id="Uh1MCq1mp-rETHQdj0HH-155" value="" style="shape=partialRectangle;collapsible=0;dropTarget=0;pointerEvents=0;fillColor=none;points=[[0,0.5],[1,0.5]];portConstraint=eastwest;top=0;left=0;right=0;bottom=1;" vertex="1" parent="Uh1MCq1mp-rETHQdj0HH-154">
          <mxGeometry y="30" width="200" height="70" as="geometry" />
        </mxCell>
        <mxCell id="Uh1MCq1mp-rETHQdj0HH-156" value="PK, FK1&#xa;&#xa;PK, FK2" style="shape=partialRectangle;overflow=hidden;connectable=0;fillColor=none;top=0;left=0;bottom=0;right=0;fontStyle=1;" vertex="1" parent="Uh1MCq1mp-rETHQdj0HH-155">
          <mxGeometry width="60" height="70" as="geometry">
            <mxRectangle width="60" height="70" as="alternateBounds" />
          </mxGeometry>
        </mxCell>
        <mxCell id="Uh1MCq1mp-rETHQdj0HH-157" value="PATIENT_ID&#xa;&#xa;INSURANCE_ID" style="shape=partialRectangle;overflow=hidden;connectable=0;fillColor=none;top=0;left=0;bottom=0;right=0;align=left;spacingLeft=6;fontStyle=5;" vertex="1" parent="Uh1MCq1mp-rETHQdj0HH-155">
          <mxGeometry x="60" width="140" height="70" as="geometry">
            <mxRectangle width="140" height="70" as="alternateBounds" />
          </mxGeometry>
        </mxCell>
        <mxCell id="Uh1MCq1mp-rETHQdj0HH-158" value="" style="shape=partialRectangle;collapsible=0;dropTarget=0;pointerEvents=0;fillColor=none;points=[[0,0.5],[1,0.5]];portConstraint=eastwest;top=0;left=0;right=0;bottom=0;" vertex="1" parent="Uh1MCq1mp-rETHQdj0HH-154">
          <mxGeometry y="100" width="200" height="30" as="geometry" />
        </mxCell>
        <mxCell id="Uh1MCq1mp-rETHQdj0HH-159" value="" style="shape=partialRectangle;overflow=hidden;connectable=0;fillColor=none;top=0;left=0;bottom=0;right=0;" vertex="1" parent="Uh1MCq1mp-rETHQdj0HH-158">
          <mxGeometry width="60" height="30" as="geometry">
            <mxRectangle width="60" height="30" as="alternateBounds" />
          </mxGeometry>
        </mxCell>
        <mxCell id="Uh1MCq1mp-rETHQdj0HH-160" value="coverage type" style="shape=partialRectangle;overflow=hidden;connectable=0;fillColor=none;top=0;left=0;bottom=0;right=0;align=left;spacingLeft=6;" vertex="1" parent="Uh1MCq1mp-rETHQdj0HH-158">
          <mxGeometry x="60" width="140" height="30" as="geometry">
            <mxRectangle width="140" height="30" as="alternateBounds" />
          </mxGeometry>
        </mxCell>
        <mxCell id="Uh1MCq1mp-rETHQdj0HH-161" value="" style="shape=partialRectangle;collapsible=0;dropTarget=0;pointerEvents=0;fillColor=none;points=[[0,0.5],[1,0.5]];portConstraint=eastwest;top=0;left=0;right=0;bottom=0;" vertex="1" parent="Uh1MCq1mp-rETHQdj0HH-154">
          <mxGeometry y="130" width="200" height="30" as="geometry" />
        </mxCell>
        <mxCell id="Uh1MCq1mp-rETHQdj0HH-162" value="" style="shape=partialRectangle;overflow=hidden;connectable=0;fillColor=none;top=0;left=0;bottom=0;right=0;" vertex="1" parent="Uh1MCq1mp-rETHQdj0HH-161">
          <mxGeometry width="60" height="30" as="geometry">
            <mxRectangle width="60" height="30" as="alternateBounds" />
          </mxGeometry>
        </mxCell>
        <mxCell id="Uh1MCq1mp-rETHQdj0HH-163" value="name" style="shape=partialRectangle;overflow=hidden;connectable=0;fillColor=none;top=0;left=0;bottom=0;right=0;align=left;spacingLeft=6;" vertex="1" parent="Uh1MCq1mp-rETHQdj0HH-161">
          <mxGeometry x="60" width="140" height="30" as="geometry">
            <mxRectangle width="140" height="30" as="alternateBounds" />
          </mxGeometry>
        </mxCell>
        <mxCell id="Uh1MCq1mp-rETHQdj0HH-164" value="&lt;b&gt;Monthly Revenue&lt;/b&gt;&lt;div&gt;&lt;b&gt;PK: &lt;u&gt;Month&lt;/u&gt;&lt;/b&gt;&lt;/div&gt;&lt;div&gt;amount&lt;/div&gt;" style="rounded=0;whiteSpace=wrap;html=1;" vertex="1" parent="1">
          <mxGeometry x="600" y="720" width="120" height="60" as="geometry" />
        </mxCell>
        <mxCell id="Uh1MCq1mp-rETHQdj0HH-165" value="&lt;b&gt;Monthly Costs&lt;/b&gt;&lt;div&gt;&lt;b&gt;PK: &lt;u&gt;Month&lt;/u&gt;&lt;/b&gt;&lt;/div&gt;&lt;div&gt;amount&lt;/div&gt;" style="rounded=0;whiteSpace=wrap;html=1;" vertex="1" parent="1">
          <mxGeometry x="600" y="800" width="120" height="60" as="geometry" />
        </mxCell>
        <mxCell id="Uh1MCq1mp-rETHQdj0HH-168" style="edgeStyle=orthogonalEdgeStyle;rounded=0;orthogonalLoop=1;jettySize=auto;html=1;exitX=1;exitY=0.5;exitDx=0;exitDy=0;entryX=1;entryY=0.25;entryDx=0;entryDy=0;endArrow=ERone;endFill=0;startArrow=ERmany;startFill=0;" edge="1" parent="1" source="Uh1MCq1mp-rETHQdj0HH-51" target="Uh1MCq1mp-rETHQdj0HH-165">
          <mxGeometry relative="1" as="geometry" />
        </mxCell>
        <mxCell id="Uh1MCq1mp-rETHQdj0HH-169" style="edgeStyle=orthogonalEdgeStyle;rounded=0;orthogonalLoop=1;jettySize=auto;html=1;exitX=1;exitY=0.5;exitDx=0;exitDy=0;entryX=1;entryY=0.5;entryDx=0;entryDy=0;endArrow=ERone;endFill=0;startArrow=ERmany;startFill=0;" edge="1" parent="1" source="Uh1MCq1mp-rETHQdj0HH-29" target="Uh1MCq1mp-rETHQdj0HH-165">
          <mxGeometry relative="1" as="geometry">
            <Array as="points">
              <mxPoint x="840" y="115" />
              <mxPoint x="840" y="830" />
            </Array>
          </mxGeometry>
        </mxCell>
      </root>
    </mxGraphModel>
  </diagram>
</mxfile>
